<svg width="20" height="20" viewBox="0 0 20 20" fill="none" xmlns="http://www.w3.org/2000/svg">
<path d="M11.1047 9.99922L19.771 18.6655C20.0761 18.9707 20.0761 19.4653 19.771 19.7704C19.4658 20.0755 18.9712 20.0755 18.6661 19.7704L9.99976 11.1041L1.33348 19.7704C1.02836 20.0755 0.533671 20.0755 0.228594 19.7704C-0.0764843 19.4653 -0.0765234 18.9706 0.228594 18.6655L8.89488 9.99926L0.228594 1.33295C-0.0765234 1.02783 -0.0765234 0.533148 0.228594 0.228069C0.381133 0.075531 0.581093 -0.00071907 0.781054 -0.00071907C0.981015 -0.00071907 1.18094 0.075531 1.33351 0.228069L9.99976 8.89434L18.666 0.228069C18.8186 0.075531 19.0185 -0.00071907 19.2185 -0.00071907C19.4185 -0.00071907 19.6184 0.075531 19.771 0.228069C20.0761 0.533186 20.0761 1.02787 19.771 1.33295L11.1047 9.99922Z" fill="#A4A4A4"/>
</svg>
