<svg width="40" height="47" viewBox="0 0 40 47" fill="none" xmlns="http://www.w3.org/2000/svg">
<path d="M5.04541 6C5.04541 2.96244 7.50784 0.5 10.5454 0.5H32C36.1421 0.5 39.5 3.85786 39.5 8V33.9057C39.5 36.9432 37.0375 39.4057 34 39.4057H10.5454C7.50784 39.4057 5.04541 36.9432 5.04541 33.9057V6Z" fill="url(#paint0_linear)" fill-opacity="0.8" stroke="#FF4A78"/>
<g filter="url(#filter0_b)">
<mask id="path-2-inside-1" fill="white">
<path fill-rule="evenodd" clip-rule="evenodd" d="M6 7.09424C2.68629 7.09424 0 9.78053 0 13.0942V40.9999C0 44.3136 2.6863 46.9999 6 46.9999H25.4685C28.7822 46.9999 31.4685 44.3136 31.4685 40.9999V35.3199C33.361 33.6834 34.6154 30.8189 34.6154 27.5586C34.6154 24.2983 33.361 21.4338 31.4685 19.7973V15.0942C31.4685 10.676 27.8868 7.09424 23.4685 7.09424H6Z"/>
</mask>
<path fill-rule="evenodd" clip-rule="evenodd" d="M6 7.09424C2.68629 7.09424 0 9.78053 0 13.0942V40.9999C0 44.3136 2.6863 46.9999 6 46.9999H25.4685C28.7822 46.9999 31.4685 44.3136 31.4685 40.9999V35.3199C33.361 33.6834 34.6154 30.8189 34.6154 27.5586C34.6154 24.2983 33.361 21.4338 31.4685 19.7973V15.0942C31.4685 10.676 27.8868 7.09424 23.4685 7.09424H6Z" fill="white" fill-opacity="0.6"/>
<path d="M31.4685 35.3199L31.1415 34.9417L30.9685 35.0913V35.3199H31.4685ZM31.4685 19.7973H30.9685V20.026L31.1415 20.1755L31.4685 19.7973ZM0.5 13.0942C0.5 10.0567 2.96243 7.59424 6 7.59424V6.59424C2.41015 6.59424 -0.5 9.50439 -0.5 13.0942H0.5ZM0.5 40.9999V13.0942H-0.5V40.9999H0.5ZM6 46.4999C2.96244 46.4999 0.5 44.0375 0.5 40.9999H-0.5C-0.5 44.5897 2.41015 47.4999 6 47.4999V46.4999ZM25.4685 46.4999H6V47.4999H25.4685V46.4999ZM30.9685 40.9999C30.9685 44.0375 28.5061 46.4999 25.4685 46.4999V47.4999C29.0584 47.4999 31.9685 44.5897 31.9685 40.9999H30.9685ZM30.9685 35.3199V40.9999H31.9685V35.3199H30.9685ZM34.1154 27.5586C34.1154 30.7013 32.9048 33.4169 31.1415 34.9417L31.7956 35.6981C33.8172 33.95 35.1154 30.9365 35.1154 27.5586H34.1154ZM31.1415 20.1755C32.9048 21.7003 34.1154 24.4159 34.1154 27.5586H35.1154C35.1154 24.1807 33.8172 21.1672 31.7956 19.4191L31.1415 20.1755ZM30.9685 15.0942V19.7973H31.9685V15.0942H30.9685ZM23.4685 7.59424C27.6107 7.59424 30.9685 10.9521 30.9685 15.0942H31.9685C31.9685 10.3998 28.1629 6.59424 23.4685 6.59424V7.59424ZM6 7.59424H23.4685V6.59424H6V7.59424Z" fill="#FFB6C8" mask="url(#path-2-inside-1)"/>
</g>
<path d="M26.1772 17.7358H10.2465C9.51334 17.7358 8.91895 18.3314 8.91895 19.066C8.91895 19.8006 9.51334 20.3962 10.2465 20.3962H26.1772C26.9104 20.3962 27.5048 19.8006 27.5048 19.066C27.5048 18.3314 26.9104 17.7358 26.1772 17.7358Z" fill="white"/>
<path d="M26.1772 25.7168H10.2465C9.51334 25.7168 8.91895 26.3124 8.91895 27.047C8.91895 27.7816 9.51334 28.3772 10.2465 28.3772H26.1772C26.9104 28.3772 27.5048 27.7816 27.5048 27.047C27.5048 26.3124 26.9104 25.7168 26.1772 25.7168Z" fill="white"/>
<path d="M20.628 33.6982H10.22C9.50145 33.6982 8.91895 34.2938 8.91895 35.0284C8.91895 35.763 9.50145 36.3586 10.22 36.3586H20.628C21.3465 36.3586 21.929 35.763 21.929 35.0284C21.929 34.2938 21.3465 33.6982 20.628 33.6982Z" fill="white"/>
<defs>
<filter id="filter0_b" x="-15" y="-7.90576" width="64.6154" height="69.9057" filterUnits="userSpaceOnUse" color-interpolation-filters="sRGB">
<feFlood flood-opacity="0" result="BackgroundImageFix"/>
<feGaussianBlur in="BackgroundImage" stdDeviation="7.5"/>
<feComposite in2="SourceAlpha" operator="in" result="effect1_backgroundBlur"/>
<feBlend mode="normal" in="SourceGraphic" in2="effect1_backgroundBlur" result="shape"/>
</filter>
<linearGradient id="paint0_linear" x1="13.1818" y1="3.54717" x2="34.1603" y2="44.767" gradientUnits="userSpaceOnUse">
<stop stop-color="#FE809F"/>
<stop offset="1" stop-color="#FF4070"/>
</linearGradient>
</defs>
</svg>
