<svg width="40" height="47" viewBox="0 0 40 47" fill="none" xmlns="http://www.w3.org/2000/svg">
<path d="M5.04541 6C5.04541 2.96244 7.50784 0.5 10.5454 0.5H32C36.1421 0.5 39.5 3.85786 39.5 8V33.9057C39.5 36.9432 37.0375 39.4057 34 39.4057H10.5454C7.50784 39.4057 5.04541 36.9432 5.04541 33.9057V6Z" fill="url(#paint0_linear)" fill-opacity="0.8" stroke="#FF6500"/>
<g filter="url(#filter0_b)">
<mask id="path-2-inside-1" fill="white">
<path fill-rule="evenodd" clip-rule="evenodd" d="M6 7.09424C2.68629 7.09424 0 9.78053 0 13.0942V40.9999C0 44.3136 2.6863 46.9999 6 46.9999H25.4685C28.7822 46.9999 31.4685 44.3136 31.4685 40.9999V35.3199C33.361 33.6834 34.6154 30.8189 34.6154 27.5586C34.6154 24.2983 33.361 21.4338 31.4685 19.7973V15.0942C31.4685 10.676 27.8868 7.09424 23.4685 7.09424H6Z"/>
</mask>
<path fill-rule="evenodd" clip-rule="evenodd" d="M6 7.09424C2.68629 7.09424 0 9.78053 0 13.0942V40.9999C0 44.3136 2.6863 46.9999 6 46.9999H25.4685C28.7822 46.9999 31.4685 44.3136 31.4685 40.9999V35.3199C33.361 33.6834 34.6154 30.8189 34.6154 27.5586C34.6154 24.2983 33.361 21.4338 31.4685 19.7973V15.0942C31.4685 10.676 27.8868 7.09424 23.4685 7.09424H6Z" fill="white" fill-opacity="0.45"/>
<path d="M31.4685 35.3199L31.1415 34.9417L30.9685 35.0913V35.3199H31.4685ZM31.4685 19.7973H30.9685V20.026L31.1415 20.1755L31.4685 19.7973ZM0.5 13.0942C0.5 10.0567 2.96243 7.59424 6 7.59424V6.59424C2.41015 6.59424 -0.5 9.50439 -0.5 13.0942H0.5ZM0.5 40.9999V13.0942H-0.5V40.9999H0.5ZM6 46.4999C2.96244 46.4999 0.5 44.0375 0.5 40.9999H-0.5C-0.5 44.5897 2.41015 47.4999 6 47.4999V46.4999ZM25.4685 46.4999H6V47.4999H25.4685V46.4999ZM30.9685 40.9999C30.9685 44.0375 28.5061 46.4999 25.4685 46.4999V47.4999C29.0584 47.4999 31.9685 44.5897 31.9685 40.9999H30.9685ZM30.9685 35.3199V40.9999H31.9685V35.3199H30.9685ZM34.1154 27.5586C34.1154 30.7013 32.9048 33.4169 31.1415 34.9417L31.7956 35.6981C33.8172 33.95 35.1154 30.9365 35.1154 27.5586H34.1154ZM31.1415 20.1755C32.9048 21.7003 34.1154 24.4159 34.1154 27.5586H35.1154C35.1154 24.1807 33.8172 21.1672 31.7956 19.4191L31.1415 20.1755ZM30.9685 15.0942V19.7973H31.9685V15.0942H30.9685ZM23.4685 7.59424C27.6107 7.59424 30.9685 10.9521 30.9685 15.0942H31.9685C31.9685 10.3998 28.1629 6.59424 23.4685 6.59424V7.59424ZM6 7.59424H23.4685V6.59424H6V7.59424Z" fill="#FFE8D7" mask="url(#path-2-inside-1)"/>
</g>
<g clip-path="url(#clip0)">
<path d="M24.0711 19.9289C22.1823 18.0402 19.6711 17 17 17C14.3288 17 11.8177 18.0402 9.92892 19.9289C8.04019 21.8177 7 24.3288 7 27C7 29.6711 8.04019 32.1823 9.92892 34.0711C11.8177 35.9598 14.3289 37 17 37C19.6711 37 22.1823 35.9598 24.0711 34.0711C25.9598 32.1823 27 29.6711 27 27C27 24.3289 25.9598 21.8177 24.0711 19.9289ZM8.18103 27C8.18103 22.1372 12.1372 18.181 17 18.181C21.8627 18.181 25.819 22.1372 25.819 27C25.819 31.8628 21.8628 35.819 17 35.819C12.1372 35.819 8.18103 31.8628 8.18103 27Z" fill="white"/>
<path d="M16.9999 19.6816C15.7324 19.6816 14.7012 20.7128 14.7012 21.9804C14.7012 23.2479 15.7324 24.2791 16.9999 24.2791C18.2675 24.2791 19.2986 23.2479 19.2986 21.9804C19.2986 20.7128 18.2675 19.6816 16.9999 19.6816ZM16.9999 23.0981C16.3836 23.0981 15.8822 22.5967 15.8822 21.9804C15.8822 21.3641 16.3836 20.8627 16.9999 20.8627C17.6162 20.8627 18.1176 21.3641 18.1176 21.9804C18.1176 22.5967 17.6162 23.0981 16.9999 23.0981Z" fill="white"/>
<path d="M16.9726 24.9878C15.7202 24.9878 14.7012 26.0068 14.7012 27.2592V32.0468C14.7012 33.2993 15.7202 34.3182 16.9726 34.3182C18.225 34.3182 19.244 33.2993 19.244 32.0468V27.2592C19.244 26.0068 18.225 24.9878 16.9726 24.9878ZM18.063 32.0468C18.063 32.648 17.5738 33.1372 16.9726 33.1372C16.3714 33.1372 15.8822 32.648 15.8822 32.0468V27.2592C15.8822 26.658 16.3714 26.169 16.9726 26.169C17.5738 26.169 18.063 26.658 18.063 27.2592V32.0468Z" fill="white"/>
</g>
<defs>
<filter id="filter0_b" x="-15" y="-7.90576" width="64.6154" height="69.9057" filterUnits="userSpaceOnUse" color-interpolation-filters="sRGB">
<feFlood flood-opacity="0" result="BackgroundImageFix"/>
<feGaussianBlur in="BackgroundImage" stdDeviation="7.5"/>
<feComposite in2="SourceAlpha" operator="in" result="effect1_backgroundBlur"/>
<feBlend mode="normal" in="SourceGraphic" in2="effect1_backgroundBlur" result="shape"/>
</filter>
<linearGradient id="paint0_linear" x1="13.1818" y1="3.54717" x2="34.1603" y2="44.767" gradientUnits="userSpaceOnUse">
<stop stop-color="#FEAA25"/>
<stop offset="1" stop-color="#FE890D"/>
</linearGradient>
<clipPath id="clip0">
<rect width="20" height="20" fill="white" transform="translate(7 17)"/>
</clipPath>
</defs>
</svg>
