<svg width="40" height="47" viewBox="0 0 40 47" fill="none" xmlns="http://www.w3.org/2000/svg">
<path d="M5.0459 6C5.0459 2.96244 7.50833 0.5 10.5459 0.5H32.0004C36.1426 0.5 39.5004 3.85786 39.5004 8V33.9057C39.5004 36.9432 37.038 39.4057 34.0004 39.4057H10.5459C7.50833 39.4057 5.0459 36.9432 5.0459 33.9057V6Z" fill="url(#paint0_radial)" fill-opacity="0.8" stroke="url(#paint1_linear)"/>
<g filter="url(#filter0_b)">
<mask id="path-2-inside-1" fill="white">
<path fill-rule="evenodd" clip-rule="evenodd" d="M6 7.09436C2.68629 7.09436 0 9.78065 0 13.0944V41C0 44.3137 2.6863 47 6 47H25.4685C28.7822 47 31.4685 44.3137 31.4685 41V35.32C33.361 33.6836 34.6154 30.819 34.6154 27.5587C34.6154 24.2985 33.361 21.4339 31.4685 19.7974V15.0944C31.4685 10.6761 27.8868 7.09436 23.4685 7.09436H6Z"/>
</mask>
<path fill-rule="evenodd" clip-rule="evenodd" d="M6 7.09436C2.68629 7.09436 0 9.78065 0 13.0944V41C0 44.3137 2.6863 47 6 47H25.4685C28.7822 47 31.4685 44.3137 31.4685 41V35.32C33.361 33.6836 34.6154 30.819 34.6154 27.5587C34.6154 24.2985 33.361 21.4339 31.4685 19.7974V15.0944C31.4685 10.6761 27.8868 7.09436 23.4685 7.09436H6Z" fill="white" fill-opacity="0.45"/>
<path d="M31.4685 35.32L31.1415 34.9418L30.9685 35.0914V35.32H31.4685ZM31.4685 19.7974H30.9685V20.0261L31.1415 20.1756L31.4685 19.7974ZM0.5 13.0944C0.5 10.0568 2.96243 7.59436 6 7.59436V6.59436C2.41015 6.59436 -0.5 9.50451 -0.5 13.0944H0.5ZM0.5 41V13.0944H-0.5V41H0.5ZM6 46.5C2.96244 46.5 0.5 44.0376 0.5 41H-0.5C-0.5 44.5899 2.41015 47.5 6 47.5V46.5ZM25.4685 46.5H6V47.5H25.4685V46.5ZM30.9685 41C30.9685 44.0376 28.5061 46.5 25.4685 46.5V47.5C29.0584 47.5 31.9685 44.5899 31.9685 41H30.9685ZM30.9685 35.32V41H31.9685V35.32H30.9685ZM34.1154 27.5587C34.1154 30.7014 32.9048 33.417 31.1415 34.9418L31.7956 35.6982C33.8172 33.9501 35.1154 30.9366 35.1154 27.5587H34.1154ZM31.1415 20.1756C32.9048 21.7004 34.1154 24.4161 34.1154 27.5587H35.1154C35.1154 24.1809 33.8172 21.1673 31.7956 19.4192L31.1415 20.1756ZM30.9685 15.0944V19.7974H31.9685V15.0944H30.9685ZM23.4685 7.59436C27.6107 7.59436 30.9685 10.9522 30.9685 15.0944H31.9685C31.9685 10.3999 28.1629 6.59436 23.4685 6.59436V7.59436ZM6 7.59436H23.4685V6.59436H6V7.59436Z" fill="url(#paint2_linear)" fill-opacity="0.72" mask="url(#path-2-inside-1)"/>
</g>
<circle cx="16.5" cy="25.5" r="9.5" stroke="white" stroke-width="2"/>
<rect x="15" y="24" width="2.7" height="7" rx="1.35" fill="white"/>
<circle cx="16.35" cy="21.35" r="1.35" fill="white"/>
<defs>
<filter id="filter0_b" x="-15" y="-7.90564" width="64.6154" height="69.9057" filterUnits="userSpaceOnUse" color-interpolation-filters="sRGB">
<feFlood flood-opacity="0" result="BackgroundImageFix"/>
<feGaussianBlur in="BackgroundImage" stdDeviation="7.5"/>
<feComposite in2="SourceAlpha" operator="in" result="effect1_backgroundBlur"/>
<feBlend mode="normal" in="SourceGraphic" in2="effect1_backgroundBlur" result="shape"/>
</filter>
<radialGradient id="paint0_radial" cx="0" cy="0" r="1" gradientUnits="userSpaceOnUse" gradientTransform="translate(24.0914 23.9434) rotate(61.8595) scale(23.1304 20.3289)">
<stop stop-color="#FFC871"/>
<stop offset="1" stop-color="#FE890D"/>
</radialGradient>
<linearGradient id="paint1_linear" x1="22.2732" y1="0" x2="22.2732" y2="39.9057" gradientUnits="userSpaceOnUse">
<stop stop-color="#FB9609"/>
<stop offset="1" stop-color="#FFA163" stop-opacity="0.79"/>
</linearGradient>
<linearGradient id="paint2_linear" x1="17.3077" y1="7.09436" x2="17.3077" y2="47" gradientUnits="userSpaceOnUse">
<stop stop-color="#FFDBC1"/>
<stop offset="1" stop-color="#FFF1E7" stop-opacity="0.31"/>
</linearGradient>
</defs>
</svg>
