<svg width="27" height="27" viewBox="0 0 27 27" fill="none" xmlns="http://www.w3.org/2000/svg">
<path d="M13.3077 13.006C15.0945 13.006 16.6415 12.3652 17.9059 11.1008C19.1698 9.83659 19.8109 8.28979 19.8109 6.5028C19.8109 4.71642 19.17 3.16941 17.9056 1.90482C16.6413 0.640845 15.0942 0 13.3077 0C11.5207 0 9.97386 0.640845 8.70968 1.90503C7.4455 3.16921 6.80444 4.71622 6.80444 6.5028C6.80444 8.28979 7.4455 9.8368 8.70968 11.101C9.97427 12.365 11.5213 13.006 13.3077 13.006ZM9.82864 3.02378C10.7987 2.05375 11.9366 1.58223 13.3077 1.58223C14.6786 1.58223 15.8167 2.05375 16.7869 3.02378C17.7569 3.994 18.2286 5.13212 18.2286 6.5028C18.2286 7.87389 17.7569 9.01179 16.7869 9.98202C15.8167 10.9522 14.6786 11.4238 13.3077 11.4238C11.937 11.4238 10.7991 10.952 9.82864 9.98202C8.85841 9.012 8.38668 7.87389 8.38668 6.5028C8.38668 5.13212 8.85841 3.994 9.82864 3.02378Z" fill="#5264A2"/>
<path d="M24.6865 20.7617C24.65 20.2356 24.5763 19.6617 24.4677 19.0557C24.3581 18.4451 24.217 17.8679 24.0481 17.3404C23.8734 16.7951 23.6363 16.2566 23.3428 15.7406C23.0385 15.205 22.6809 14.7387 22.2797 14.3549C21.86 13.9534 21.3463 13.6306 20.7522 13.3952C20.1602 13.161 19.5041 13.0423 18.8023 13.0423C18.5267 13.0423 18.2601 13.1554 17.7453 13.4906C17.4285 13.6972 17.0579 13.9361 16.6443 14.2004C16.2906 14.4258 15.8115 14.6369 15.2196 14.8281C14.6422 15.0149 14.056 15.1097 13.4771 15.1097C12.8987 15.1097 12.3124 15.0149 11.7346 14.8281C11.1434 14.6371 10.6641 14.426 10.311 14.2006C9.90129 13.9388 9.5305 13.6999 9.20895 13.4904C8.69458 13.1552 8.42802 13.0421 8.1524 13.0421C7.45038 13.0421 6.79449 13.161 6.20267 13.3954C5.609 13.6304 5.09505 13.9532 4.67503 14.3551C4.27375 14.7391 3.91615 15.2053 3.6121 15.7406C3.31897 16.2566 3.08167 16.7949 2.90698 17.3406C2.73827 17.8681 2.59717 18.4451 2.48758 19.0557C2.37881 19.6609 2.30527 20.235 2.26881 20.7623C2.23297 21.2779 2.21484 21.8145 2.21484 22.3567C2.21484 23.7661 2.66288 24.9071 3.54639 25.7486C4.41898 26.579 5.57336 27 6.97762 27H19.9783C21.3821 27 22.5365 26.579 23.4093 25.7486C24.293 24.9077 24.7411 23.7663 24.7411 22.3565C24.7409 21.8125 24.7225 21.2759 24.6865 20.7617ZM22.3184 24.6023C21.7418 25.151 20.9763 25.4178 19.9781 25.4178H6.97762C5.97917 25.4178 5.2137 25.151 4.63733 24.6025C4.07188 24.0642 3.79708 23.3294 3.79708 22.3567C3.79708 21.8508 3.81377 21.3513 3.84714 20.8717C3.87968 20.4012 3.94622 19.8844 4.04489 19.3352C4.14233 18.7928 4.26633 18.2838 4.41383 17.823C4.55534 17.3812 4.74836 16.9436 4.98772 16.5222C5.21617 16.1205 5.47902 15.7759 5.76906 15.4982C6.04035 15.2384 6.3823 15.0258 6.78522 14.8664C7.15787 14.7189 7.57665 14.6382 8.03128 14.626C8.08669 14.6555 8.18536 14.7117 8.34521 14.8159C8.67048 15.0279 9.04539 15.2697 9.45985 15.5344C9.92704 15.8323 10.529 16.1013 11.2481 16.3335C11.9833 16.5712 12.7331 16.6919 13.4773 16.6919C14.2216 16.6919 14.9716 16.5712 15.7064 16.3337C16.4261 16.1011 17.0278 15.8323 17.4957 15.534C17.9198 15.2629 18.2842 15.0281 18.6095 14.8159C18.7693 14.7119 18.868 14.6555 18.9234 14.626C19.3782 14.6382 19.797 14.7189 20.1699 14.8664C20.5726 15.0258 20.9145 15.2386 21.1858 15.4982C21.4759 15.7756 21.7387 16.1203 21.9672 16.5224C22.2067 16.9436 22.4 17.3814 22.5413 17.8228C22.689 18.2842 22.8132 18.793 22.9104 19.335C23.0089 19.8852 23.0756 20.4023 23.1082 20.8719V20.8723C23.1417 21.35 23.1586 21.8494 23.1588 22.3567C23.1586 23.3296 22.8838 24.0642 22.3184 24.6023Z" fill="#5264A2"/>
</svg>
