<svg width="25" height="25" viewBox="0 0 25 25" fill="none" xmlns="http://www.w3.org/2000/svg">
<g clip-path="url(#clip0)">
<path d="M21.8069 6.07383L15.9477 0.2146C15.8109 0.0777832 15.6242 0 15.4297 0H5.17578C3.96421 0 2.97852 0.985693 2.97852 2.19727V22.8027C2.97852 24.0143 3.96421 25 5.17578 25H19.8242C21.0358 25 22.0215 24.0143 22.0215 22.8027V6.5918C22.0215 6.39209 21.9376 6.20454 21.8069 6.07383ZM16.1621 2.50063L19.5208 5.85938H16.8945C16.4907 5.85938 16.1621 5.53081 16.1621 5.12695V2.50063ZM19.8242 23.5352H5.17578C4.77192 23.5352 4.44336 23.2066 4.44336 22.8027V2.19727C4.44336 1.79341 4.77192 1.46484 5.17578 1.46484H14.6973V5.12695C14.6973 6.33853 15.683 7.32422 16.8945 7.32422H20.5566V22.8027C20.5566 23.2066 20.2281 23.5352 19.8242 23.5352Z" fill="#5264A2"/>
<path d="M16.8945 10.3516H8.10547C7.70098 10.3516 7.37305 10.6795 7.37305 11.084C7.37305 11.4885 7.70098 11.8164 8.10547 11.8164H16.8945C17.299 11.8164 17.627 11.4885 17.627 11.084C17.627 10.6795 17.299 10.3516 16.8945 10.3516Z" fill="#5264A2"/>
<path d="M16.8945 13.2812H8.10547C7.70098 13.2812 7.37305 13.6092 7.37305 14.0137C7.37305 14.4182 7.70098 14.7461 8.10547 14.7461H16.8945C17.299 14.7461 17.627 14.4182 17.627 14.0137C17.627 13.6092 17.299 13.2812 16.8945 13.2812Z" fill="#5264A2"/>
<path d="M16.8945 16.2109H8.10547C7.70098 16.2109 7.37305 16.5389 7.37305 16.9434C7.37305 17.3479 7.70098 17.6758 8.10547 17.6758H16.8945C17.299 17.6758 17.627 17.3479 17.627 16.9434C17.627 16.5389 17.299 16.2109 16.8945 16.2109Z" fill="#5264A2"/>
<path d="M13.9648 19.1406H8.10547C7.70098 19.1406 7.37305 19.4686 7.37305 19.873C7.37305 20.2775 7.70098 20.6055 8.10547 20.6055H13.9648C14.3693 20.6055 14.6973 20.2775 14.6973 19.873C14.6973 19.4686 14.3693 19.1406 13.9648 19.1406Z" fill="#5264A2"/>
</g>
<defs>
<clipPath id="clip0">
<rect width="25" height="25" fill="white"/>
</clipPath>
</defs>
</svg>
