<svg width="27" height="25" viewBox="0 0 27 25" fill="none" xmlns="http://www.w3.org/2000/svg">
<path d="M26.5374 9.12246L25.2168 7.89976C24.6 7.32856 23.5964 7.32866 22.9795 7.89976L20.198 10.4752V2.19727C20.198 0.985693 19.1335 0 17.825 0H2.37378C1.06528 0 0.000732422 0.985693 0.000732422 2.19727V22.8027C0.000732422 24.0143 1.06528 25 2.37378 25H17.825C19.1335 25 20.198 24.0143 20.198 22.8027V16.9906L26.5374 11.1941C27.1542 10.6229 27.1542 9.6936 26.5374 9.12246ZM17.0769 17.7857L14.6974 18.8139L15.8068 16.6128L21.7117 11.1453L23.0172 12.3541L17.0769 17.7857ZM18.616 22.8027C18.616 23.2066 18.2611 23.5352 17.825 23.5352H2.37378C1.93761 23.5352 1.58276 23.2066 1.58276 22.8027V2.19727C1.58276 1.79341 1.93761 1.46484 2.37378 1.46484H17.825C18.2611 1.46484 18.616 1.79341 18.616 2.19727V11.94C14.2296 16.0015 14.516 15.7097 14.432 15.8764L12.3438 20.0196C12.2032 20.2988 12.2661 20.6295 12.5013 20.8473C12.7365 21.0651 13.0938 21.1233 13.3952 20.9931L17.8699 19.0595C18.0339 18.9886 18.0609 18.9446 18.616 18.4371V22.8027ZM24.1428 11.3249L22.8303 10.1095L24.0982 8.93555L25.4183 10.1586L24.1428 11.3249Z" fill="#5264A2"/>
<path d="M4.21924 6.20117H16.0317C16.4686 6.20117 16.8228 5.87324 16.8228 5.46875C16.8228 5.06426 16.4686 4.73633 16.0317 4.73633H4.21924C3.78239 4.73633 3.42822 5.06426 3.42822 5.46875C3.42822 5.87324 3.78239 6.20117 4.21924 6.20117Z" fill="#5264A2"/>
<path d="M4.21924 10.1074H13.5005C13.9373 10.1074 14.2915 9.77949 14.2915 9.375C14.2915 8.97051 13.9373 8.64258 13.5005 8.64258H4.21924C3.78239 8.64258 3.42822 8.97051 3.42822 9.375C3.42822 9.77949 3.78239 10.1074 4.21924 10.1074Z" fill="#5264A2"/>
<path d="M10.9692 12.5488H4.21924C3.78239 12.5488 3.42822 12.8768 3.42822 13.2812C3.42822 13.6857 3.78239 14.0137 4.21924 14.0137H10.9692C11.4061 14.0137 11.7603 13.6857 11.7603 13.2812C11.7603 12.8768 11.4061 12.5488 10.9692 12.5488Z" fill="#5264A2"/>
</svg>
