<svg width="27" height="27" viewBox="0 0 27 27" fill="none" xmlns="http://www.w3.org/2000/svg">
<g clip-path="url(#clip0)">
<path d="M23.046 3.95405C20.4962 1.40426 17.1059 0 13.5 0C9.89388 0 6.50384 1.40426 3.95405 3.95405C1.40426 6.50384 0 9.89388 0 13.5C0 17.1059 1.40426 20.4962 3.95405 23.046C6.50384 25.5957 9.89408 27 13.5 27C17.1059 27 20.4962 25.5957 23.046 23.046C25.5957 20.4962 27 17.1059 27 13.5C27 9.89408 25.5957 6.50384 23.046 3.95405ZM1.59439 13.5C1.59439 6.93519 6.93519 1.59439 13.5 1.59439C20.0646 1.59439 25.4056 6.93519 25.4056 13.5C25.4056 20.0648 20.0648 25.4056 13.5 25.4056C6.93519 25.4056 1.59439 20.0648 1.59439 13.5Z" fill="#5264A2"/>
<path d="M13.5 3.62036C11.7888 3.62036 10.3967 5.01247 10.3967 6.72366C10.3967 8.43484 11.7888 9.82695 13.5 9.82695C15.2112 9.82695 16.6033 8.43484 16.6033 6.72366C16.6033 5.01247 15.2112 3.62036 13.5 3.62036ZM13.5 8.23256C12.668 8.23256 11.9911 7.55566 11.9911 6.72366C11.9911 5.89165 12.668 5.21475 13.5 5.21475C14.332 5.21475 15.0089 5.89165 15.0089 6.72366C15.0089 7.55566 14.332 8.23256 13.5 8.23256Z" fill="#5264A2"/>
<path d="M13.4632 10.7835C11.7724 10.7835 10.3967 12.1591 10.3967 13.8499V20.3132C10.3967 22.004 11.7724 23.3796 13.4632 23.3796C15.1539 23.3796 16.5296 22.004 16.5296 20.3132V13.8499C16.5296 12.1591 15.1539 10.7835 13.4632 10.7835ZM14.9352 20.3132C14.9352 21.1248 14.2748 21.7852 13.4632 21.7852C12.6515 21.7852 11.9911 21.1248 11.9911 20.3132V13.8499C11.9911 13.0383 12.6515 12.3781 13.4632 12.3781C14.2748 12.3781 14.9352 13.0383 14.9352 13.8499V20.3132Z" fill="#5264A2"/>
</g>
<defs>
<clipPath id="clip0">
<rect width="27" height="27" fill="white"/>
</clipPath>
</defs>
</svg>
