<svg width="40" height="47" viewBox="0 0 40 47" fill="none" xmlns="http://www.w3.org/2000/svg">
<path d="M5.04541 6C5.04541 2.96244 7.50784 0.5 10.5454 0.5H32C36.1421 0.5 39.5 3.85786 39.5 8V33.9057C39.5 36.9432 37.0375 39.4057 34 39.4057H10.5454C7.50784 39.4057 5.04541 36.9432 5.04541 33.9057V6Z" fill="url(#paint0_linear)" fill-opacity="0.8" stroke="#8458FF"/>
<g filter="url(#filter0_b)">
<mask id="path-2-inside-1" fill="white">
<path fill-rule="evenodd" clip-rule="evenodd" d="M6 7.09424C2.68629 7.09424 0 9.78053 0 13.0942V40.9999C0 44.3136 2.6863 46.9999 6 46.9999H25.4685C28.7822 46.9999 31.4685 44.3136 31.4685 40.9999V35.3199C33.361 33.6834 34.6154 30.8189 34.6154 27.5586C34.6154 24.2983 33.361 21.4338 31.4685 19.7973V15.0942C31.4685 10.676 27.8868 7.09424 23.4685 7.09424H6Z"/>
</mask>
<path fill-rule="evenodd" clip-rule="evenodd" d="M6 7.09424C2.68629 7.09424 0 9.78053 0 13.0942V40.9999C0 44.3136 2.6863 46.9999 6 46.9999H25.4685C28.7822 46.9999 31.4685 44.3136 31.4685 40.9999V35.3199C33.361 33.6834 34.6154 30.8189 34.6154 27.5586C34.6154 24.2983 33.361 21.4338 31.4685 19.7973V15.0942C31.4685 10.676 27.8868 7.09424 23.4685 7.09424H6Z" fill="white" fill-opacity="0.2"/>
<path d="M31.4685 35.3199L31.1415 34.9417L30.9685 35.0913V35.3199H31.4685ZM31.4685 19.7973H30.9685V20.026L31.1415 20.1755L31.4685 19.7973ZM0.5 13.0942C0.5 10.0567 2.96243 7.59424 6 7.59424V6.59424C2.41015 6.59424 -0.5 9.50439 -0.5 13.0942H0.5ZM0.5 40.9999V13.0942H-0.5V40.9999H0.5ZM6 46.4999C2.96244 46.4999 0.5 44.0375 0.5 40.9999H-0.5C-0.5 44.5897 2.41015 47.4999 6 47.4999V46.4999ZM25.4685 46.4999H6V47.4999H25.4685V46.4999ZM30.9685 40.9999C30.9685 44.0375 28.5061 46.4999 25.4685 46.4999V47.4999C29.0584 47.4999 31.9685 44.5897 31.9685 40.9999H30.9685ZM30.9685 35.3199V40.9999H31.9685V35.3199H30.9685ZM34.1154 27.5586C34.1154 30.7013 32.9048 33.4169 31.1415 34.9417L31.7956 35.6981C33.8172 33.95 35.1154 30.9365 35.1154 27.5586H34.1154ZM31.1415 20.1755C32.9048 21.7003 34.1154 24.4159 34.1154 27.5586H35.1154C35.1154 24.1807 33.8172 21.1672 31.7956 19.4191L31.1415 20.1755ZM30.9685 15.0942V19.7973H31.9685V15.0942H30.9685ZM23.4685 7.59424C27.6107 7.59424 30.9685 10.9521 30.9685 15.0942H31.9685C31.9685 10.3998 28.1629 6.59424 23.4685 6.59424V7.59424ZM6 7.59424H23.4685V6.59424H6V7.59424Z" fill="#DACCFF" mask="url(#path-2-inside-1)"/>
</g>
<path d="M16.8577 26.6341C18.1813 26.6341 19.3272 26.1594 20.2638 25.2228C21.2001 24.2864 21.6749 23.1406 21.6749 21.8169C21.6749 20.4936 21.2002 19.3477 20.2636 18.411C19.3271 17.4747 18.1811 17 16.8577 17C15.534 17 14.3882 17.4747 13.4518 18.4111C12.5154 19.3476 12.0405 20.4935 12.0405 21.8169C12.0405 23.1406 12.5154 24.2865 13.4518 25.2229C14.3885 26.1592 15.5345 26.6341 16.8577 26.6341ZM14.2807 19.2398C14.9992 18.5213 15.8421 18.172 16.8577 18.172C17.8732 18.172 18.7162 18.5213 19.4349 19.2398C20.1535 19.9585 20.5029 20.8016 20.5029 21.8169C20.5029 22.8325 20.1535 23.6754 19.4349 24.3941C18.7162 25.1128 17.8732 25.4621 16.8577 25.4621C15.8424 25.4621 14.9995 25.1126 14.2807 24.3941C13.562 23.6756 13.2126 22.8325 13.2126 21.8169C13.2126 20.8016 13.562 19.9585 14.2807 19.2398Z" fill="white"/>
<path d="M25.2863 32.3789C25.2593 31.9892 25.2047 31.564 25.1242 31.1151C25.0431 30.6629 24.9385 30.2353 24.8134 29.8445C24.684 29.4406 24.5084 29.0418 24.291 28.6595C24.0656 28.2628 23.8007 27.9174 23.5034 27.6331C23.1926 27.3357 22.8121 27.0966 22.372 26.9222C21.9335 26.7487 21.4475 26.6608 20.9276 26.6608C20.7234 26.6608 20.526 26.7446 20.1447 26.9928C19.91 27.1459 19.6355 27.3229 19.3291 27.5186C19.0671 27.6856 18.7122 27.842 18.2738 27.9836C17.8461 28.122 17.4118 28.1922 16.9831 28.1922C16.5546 28.1922 16.1203 28.122 15.6923 27.9836C15.2544 27.8421 14.8993 27.6857 14.6378 27.5188C14.3343 27.3249 14.0596 27.1479 13.8214 26.9927C13.4404 26.7444 13.243 26.6606 13.0388 26.6606C12.5188 26.6606 12.033 26.7487 11.5946 26.9223C11.1548 27.0964 10.7741 27.3355 10.463 27.6332C10.1657 27.9177 9.90085 28.263 9.67563 28.6595C9.4585 29.0418 9.28271 29.4405 9.15332 29.8447C9.02835 30.2355 8.92383 30.6629 8.84265 31.1151C8.76208 31.5634 8.70761 31.9887 8.6806 32.3793C8.65405 32.7613 8.64062 33.1587 8.64062 33.5604C8.64062 34.6044 8.9725 35.4495 9.62695 36.0729C10.2733 36.6879 11.1284 36.9998 12.1686 36.9998H21.7987C22.8386 36.9998 23.6937 36.6879 24.3402 36.0729C24.9948 35.45 25.3267 34.6045 25.3267 33.5602C25.3266 33.1572 25.313 32.7597 25.2863 32.3789ZM23.5321 35.2237C23.105 35.6302 22.538 35.8278 21.7986 35.8278H12.1686C11.429 35.8278 10.862 35.6302 10.4351 35.2239C10.0162 34.8252 9.81265 34.2809 9.81265 33.5604C9.81265 33.1856 9.82501 32.8156 9.84973 32.4603C9.87384 32.1118 9.92313 31.729 9.99622 31.3222C10.0684 30.9204 10.1602 30.5434 10.2695 30.2021C10.3743 29.8748 10.5173 29.5507 10.6946 29.2385C10.8638 28.9409 11.0585 28.6856 11.2734 28.4799C11.4743 28.2875 11.7276 28.1301 12.0261 28.012C12.3021 27.9027 12.6123 27.8429 12.9491 27.8339C12.9901 27.8557 13.0632 27.8974 13.1816 27.9746C13.4226 28.1316 13.7003 28.3107 14.0073 28.5068C14.3534 28.7274 14.7992 28.9267 15.3319 29.0987C15.8765 29.2748 16.4319 29.3642 16.9832 29.3642C17.5345 29.3642 18.0901 29.2748 18.6344 29.0988C19.1675 28.9266 19.6132 28.7274 19.9597 28.5065C20.2739 28.3057 20.5439 28.1317 20.7848 27.9746C20.9032 27.8975 20.9763 27.8557 21.0173 27.8339C21.3542 27.8429 21.6645 27.9027 21.9406 28.012C22.239 28.1301 22.4922 28.2877 22.6932 28.4799C22.9081 28.6855 23.1028 28.9408 23.272 29.2386C23.4494 29.5507 23.5926 29.8749 23.6972 30.2019C23.8066 30.5437 23.8987 30.9206 23.9707 31.322C24.0436 31.7296 24.093 32.1126 24.1172 32.4605V32.4608C24.142 32.8147 24.1545 33.1845 24.1547 33.5604C24.1545 34.281 23.951 34.8252 23.5321 35.2237Z" fill="white"/>
<defs>
<filter id="filter0_b" x="-15" y="-7.90576" width="64.6154" height="69.9057" filterUnits="userSpaceOnUse" color-interpolation-filters="sRGB">
<feFlood flood-opacity="0" result="BackgroundImageFix"/>
<feGaussianBlur in="BackgroundImage" stdDeviation="7.5"/>
<feComposite in2="SourceAlpha" operator="in" result="effect1_backgroundBlur"/>
<feBlend mode="normal" in="SourceGraphic" in2="effect1_backgroundBlur" result="shape"/>
</filter>
<linearGradient id="paint0_linear" x1="13.1818" y1="3.54717" x2="34.1603" y2="44.767" gradientUnits="userSpaceOnUse">
<stop stop-color="#B69CFF"/>
<stop offset="1" stop-color="#8F66FE"/>
</linearGradient>
</defs>
</svg>
