<svg width="30" height="30" viewBox="0 0 30 30" fill="none" xmlns="http://www.w3.org/2000/svg">
<path fill-rule="evenodd" clip-rule="evenodd" d="M23.5638 8.06405C23.6707 7.95728 23.7555 7.83051 23.8134 7.69096C23.8713 7.55142 23.9012 7.40183 23.9013 7.25075C23.9014 7.09967 23.8717 6.95005 23.814 6.81044C23.7562 6.67082 23.6716 6.54394 23.5648 6.43705C23.458 6.33015 23.3313 6.24533 23.1917 6.18743C23.0522 6.12953 22.9026 6.09968 22.7515 6.09958C22.6004 6.09949 22.4508 6.12916 22.3112 6.18689C22.1716 6.24462 22.0447 6.32928 21.9378 6.43605L14.9998 13.374L8.0638 6.43605C7.84792 6.22016 7.55511 6.09888 7.2498 6.09888C6.94449 6.09888 6.65169 6.22016 6.4358 6.43605C6.21992 6.65193 6.09863 6.94474 6.09863 7.25005C6.09863 7.55536 6.21992 7.84816 6.4358 8.06405L13.3738 15L6.4358 21.936C6.32891 22.0429 6.24411 22.1698 6.18626 22.3095C6.12841 22.4492 6.09863 22.5989 6.09863 22.75C6.09863 22.9012 6.12841 23.0509 6.18626 23.1906C6.24411 23.3302 6.32891 23.4571 6.4358 23.564C6.65169 23.7799 6.94449 23.9012 7.2498 23.9012C7.40098 23.9012 7.55067 23.8714 7.69034 23.8136C7.83 23.7557 7.95691 23.6709 8.0638 23.564L14.9998 16.626L21.9378 23.564C22.1537 23.7797 22.4464 23.9007 22.7515 23.9005C23.0566 23.9003 23.3492 23.7789 23.5648 23.563C23.7804 23.3472 23.9015 23.0545 23.9013 22.7493C23.9011 22.4442 23.7797 22.1517 23.5638 21.936L16.6258 15L23.5638 8.06405Z" fill="#0038FF"/>
</svg>
